<mxfile host="app.diagrams.net" modified="2024-03-08T03:11:54.418Z" agent="Mozilla/5.0 (Windows NT 10.0; Win64; x64) AppleWebKit/537.36 (KHTML, like Gecko) Chrome/122.0.0.0 Safari/537.36" etag="4zYz1GPnCu8Y-JK5bAi_" version="23.1.4" type="device">
  <diagram name="Page-1" id="T6es6jfnQ5XxAt5cmPew">
    <mxGraphModel dx="830" dy="439" grid="1" gridSize="10" guides="1" tooltips="1" connect="1" arrows="1" fold="1" page="1" pageScale="1" pageWidth="827" pageHeight="1169" math="0" shadow="0">
      <root>
        <mxCell id="0" />
        <mxCell id="1" parent="0" />
        <mxCell id="cPr4gPhu2mPn3_O7HKi8-1" value="-" style="rounded=0;whiteSpace=wrap;html=1;" vertex="1" parent="1">
          <mxGeometry x="100" y="130" width="60" height="30" as="geometry" />
        </mxCell>
        <mxCell id="cPr4gPhu2mPn3_O7HKi8-2" value="id" style="rounded=0;whiteSpace=wrap;html=1;" vertex="1" parent="1">
          <mxGeometry x="160" y="130" width="60" height="30" as="geometry" />
        </mxCell>
        <mxCell id="cPr4gPhu2mPn3_O7HKi8-3" value="decimals" style="rounded=0;whiteSpace=wrap;html=1;" vertex="1" parent="1">
          <mxGeometry x="220" y="130" width="130" height="30" as="geometry" />
        </mxCell>
        <mxCell id="cPr4gPhu2mPn3_O7HKi8-4" value="whole part" style="rounded=0;whiteSpace=wrap;html=1;" vertex="1" parent="1">
          <mxGeometry x="350" y="130" width="190" height="30" as="geometry" />
        </mxCell>
        <mxCell id="cPr4gPhu2mPn3_O7HKi8-5" value="0" style="text;html=1;align=center;verticalAlign=middle;whiteSpace=wrap;rounded=0;" vertex="1" parent="1">
          <mxGeometry x="510" y="160" width="60" height="20" as="geometry" />
        </mxCell>
        <mxCell id="cPr4gPhu2mPn3_O7HKi8-6" value="16" style="text;html=1;align=center;verticalAlign=middle;whiteSpace=wrap;rounded=0;" vertex="1" parent="1">
          <mxGeometry x="320" y="160" width="60" height="20" as="geometry" />
        </mxCell>
        <mxCell id="cPr4gPhu2mPn3_O7HKi8-7" value="26" style="text;html=1;align=center;verticalAlign=middle;whiteSpace=wrap;rounded=0;" vertex="1" parent="1">
          <mxGeometry x="190" y="160" width="60" height="20" as="geometry" />
        </mxCell>
        <mxCell id="cPr4gPhu2mPn3_O7HKi8-8" value="29" style="text;html=1;align=center;verticalAlign=middle;whiteSpace=wrap;rounded=0;" vertex="1" parent="1">
          <mxGeometry x="130" y="160" width="60" height="20" as="geometry" />
        </mxCell>
        <mxCell id="cPr4gPhu2mPn3_O7HKi8-9" value="32" style="text;html=1;align=center;verticalAlign=middle;whiteSpace=wrap;rounded=0;" vertex="1" parent="1">
          <mxGeometry x="70" y="160" width="60" height="20" as="geometry" />
        </mxCell>
        <mxCell id="cPr4gPhu2mPn3_O7HKi8-10" value="" style="endArrow=classic;startArrow=classic;html=1;rounded=0;" edge="1" parent="1">
          <mxGeometry width="50" height="50" relative="1" as="geometry">
            <mxPoint x="100" y="120" as="sourcePoint" />
            <mxPoint x="540" y="120" as="targetPoint" />
          </mxGeometry>
        </mxCell>
        <mxCell id="cPr4gPhu2mPn3_O7HKi8-11" value="uint32" style="edgeLabel;html=1;align=center;verticalAlign=middle;resizable=0;points=[];" vertex="1" connectable="0" parent="cPr4gPhu2mPn3_O7HKi8-10">
          <mxGeometry x="-0.0194" y="1" relative="1" as="geometry">
            <mxPoint as="offset" />
          </mxGeometry>
        </mxCell>
      </root>
    </mxGraphModel>
  </diagram>
</mxfile>
